<svg width="19" height="13" viewBox="0 0 19 13" fill="none" xmlns="http://www.w3.org/2000/svg">
<path d="M9.7505 0C6.22945 0 3.36484 2.05024 3.36484 4.57031C3.36484 5.42176 3.69437 6.2527 4.31804 6.97359L9.38702 12.82C9.48412 12.932 9.65518 13 9.83916 13C9.84058 13 9.84196 13 9.84338 13C10.029 12.999 10.2004 12.9288 10.2957 12.8149L15.2355 6.91184C15.8247 6.20618 16.1362 5.3965 16.1362 4.57031C16.1362 2.05024 13.2716 0 9.7505 0ZM14.3221 6.52077L9.83111 11.8875L5.22261 6.57226C4.70349 5.97223 4.42202 5.27998 4.42202 4.57031C4.42202 2.47025 6.81629 0.756641 9.7505 0.756641C12.6847 0.756641 15.0754 2.47025 15.0754 4.57031C15.0754 5.25893 14.8125 5.93348 14.3221 6.52077Z" fill="#9B9B9B"/>
<path d="M9.75051 2.28516C7.98998 2.28516 6.55768 3.31028 6.55768 4.57031C6.55768 5.8223 7.96668 6.85547 9.75051 6.85547C11.5563 6.85547 12.9433 5.80854 12.9433 4.57031C12.9433 3.31028 11.511 2.28516 9.75051 2.28516ZM9.75051 6.09883C8.57069 6.09883 7.61486 5.41244 7.61486 4.57031C7.61486 3.73029 8.57683 3.0418 9.75051 3.0418C10.9242 3.0418 11.8826 3.73029 11.8826 4.57031C11.8826 5.40015 10.949 6.09883 9.75051 6.09883Z" fill="#9B9B9B"/>
</svg>
