<svg width="20" height="14" viewBox="0 0 20 14" fill="none" xmlns="http://www.w3.org/2000/svg">
<path d="M2.69388 8.86666H6.60606M17.0385 8.86666H13.1263M3.99794 6.06666H15.7345M18.9946 6.06358V11.6667C18.9946 12.1821 18.4108 12.6 17.6906 12.6H16.3865C15.6663 12.6 15.0824 12.1821 15.0824 11.6667V10.7333H4.64997V11.6667C4.64997 12.1821 4.06612 12.6 3.34591 12.6H2.04185C1.32164 12.6 0.737793 12.1821 0.737793 11.6667V6.06358L3.51018 2.75871C4.21733 1.91573 5.49046 1.39999 6.86425 1.39999H12.8682C14.2419 1.39999 15.5151 1.91573 16.2222 2.75871L18.9946 6.06358Z" stroke="#FF0D29"/>
</svg>
